<?xml version="1.0" standalone="no"?>
<!DOCTYPE svg PUBLIC "-//W3C//DTD SVG 20010904//EN"
 "http://www.w3.org/TR/2001/REC-SVG-20010904/DTD/svg10.dtd">
<svg version="1.0" xmlns="http://www.w3.org/2000/svg"
 width="1024.000000pt" height="1024.000000pt" viewBox="0 0 1024.000000 1024.000000"
 preserveAspectRatio="xMidYMid meet">
<metadata>
Created by potrace 1.14, written by Peter Selinger 2001-2017
</metadata>
<g transform="translate(0.000000,1024.000000) scale(0.100000,-0.100000)"
fill="#000000" stroke="none">
<path d="M2399 10236 c-2 -2 -31 -6 -64 -10 -33 -3 -71 -8 -85 -11 -14 -3 -38
-8 -55 -10 -26 -4 -104 -23 -170 -41 -11 -3 -24 -6 -30 -7 -5 -2 -14 -5 -20
-8 -5 -4 -23 -10 -40 -14 -43 -12 -60 -18 -139 -55 -25 -11 -50 -20 -55 -20
-6 0 -11 -5 -11 -12 0 -6 -3 -9 -6 -6 -3 4 -33 -9 -66 -28 -33 -19 -64 -34
-69 -34 -5 0 -9 -4 -9 -10 0 -5 -5 -10 -11 -10 -12 0 -110 -65 -187 -124 -119
-92 -299 -281 -400 -421 -16 -22 -47 -71 -58 -90 -22 -41 -39 -70 -44 -75 -7
-7 -83 -162 -86 -175 -2 -5 -19 -52 -38 -104 -20 -52 -38 -104 -41 -115 -2
-12 -8 -36 -14 -53 -5 -18 -8 -33 -5 -33 3 0 0 -9 -6 -20 -6 -11 -13 -44 -16
-73 -3 -28 -8 -55 -10 -58 -16 -27 -19 -468 -19 -2869 0 -2362 3 -2832 20
-2860 2 -3 6 -26 10 -50 3 -25 16 -79 27 -120 11 -41 23 -87 25 -102 3 -16 9
-28 14 -28 5 0 8 -3 7 -7 -6 -29 85 -236 154 -348 10 -16 21 -38 24 -47 4 -10
10 -18 15 -18 5 0 9 -5 9 -11 0 -24 151 -211 250 -309 117 -115 135 -132 195
-176 22 -16 42 -32 45 -35 3 -3 20 -14 38 -24 17 -11 32 -23 32 -28 0 -4 4 -5
10 -2 5 3 10 1 10 -4 0 -6 4 -11 9 -11 4 0 37 -17 71 -38 35 -20 67 -36 72
-34 4 1 8 -2 8 -7 0 -14 234 -107 355 -140 118 -33 147 -39 183 -40 12 -1 22
-6 22 -11 0 -6 -209 -219 -465 -475 -304 -304 -472 -479 -486 -507 -28 -54
-27 -118 1 -192 15 -41 88 -103 135 -115 71 -18 902 -14 990 4 74 15 145 42
157 60 4 5 8 6 8 2 0 -32 192 147 683 637 312 311 567 563 567 561 0 -2 11 0
25 5 14 5 27 5 30 0 3 -5 18 -5 35 0 17 5 30 5 30 0 0 -4 16 -4 35 0 20 4 38
4 41 -1 3 -5 12 -5 22 0 11 6 24 6 34 0 10 -6 19 -6 23 0 3 6 15 7 28 2 12 -5
32 -5 44 0 13 5 25 4 28 -1 3 -6 15 -6 30 0 13 5 27 5 30 1 3 -5 21 -5 40 -1
20 4 38 4 41 -1 3 -5 12 -5 22 0 11 6 24 6 34 0 10 -6 19 -6 23 0 3 6 15 7 28
2 12 -5 32 -5 44 0 13 5 25 4 28 -1 3 -6 15 -6 30 0 13 5 27 5 30 1 3 -5 21
-5 40 -1 20 4 38 4 41 -1 3 -5 12 -5 22 0 11 6 24 6 34 0 10 -6 19 -6 23 0 3
6 15 7 28 2 12 -5 32 -5 44 0 13 5 25 4 28 -1 3 -6 15 -6 30 0 13 5 27 5 30 1
3 -5 21 -5 40 -1 20 4 38 4 41 -1 3 -5 12 -5 23 0 10 6 23 6 31 1 8 -5 18 -6
23 -3 12 7 106 7 113 0 3 -3 17 -2 30 3 14 6 26 6 29 0 3 -6 15 -6 30 0 15 6
27 6 30 0 3 -6 15 -6 30 0 15 6 27 6 30 0 3 -6 15 -6 30 0 15 6 27 6 30 0 3
-6 15 -6 30 0 15 6 27 6 30 0 3 -6 15 -6 30 0 15 6 27 6 30 0 3 -6 15 -6 30 0
15 6 27 6 30 0 3 -6 15 -6 30 0 15 6 27 6 30 0 3 -6 15 -6 30 0 15 6 27 6 30
0 3 -6 15 -6 30 0 15 6 27 6 30 0 3 -6 15 -6 30 0 15 6 27 6 30 0 3 -6 15 -6
30 0 15 6 27 6 30 0 3 -6 15 -6 30 0 15 6 27 6 30 0 3 -6 15 -6 30 0 15 6 27
6 30 0 3 -6 15 -6 30 0 15 6 27 6 30 0 3 -6 15 -6 30 0 15 6 27 6 30 0 3 -6
15 -6 29 0 13 5 27 6 30 3 8 -8 74 -8 82 0 3 3 17 2 30 -3 14 -6 26 -6 29 0 3
6 15 6 30 0 14 -5 25 -7 25 -5 0 3 249 -244 553 -547 303 -304 572 -569 597
-589 39 -32 140 -92 162 -98 4 -1 13 -3 20 -6 93 -31 138 -34 603 -34 408 -1
474 1 485 14 7 8 18 15 26 15 20 0 70 51 93 96 34 65 33 123 -3 204 -6 13
-224 237 -484 497 -341 342 -468 475 -457 479 9 4 19 4 22 0 3 -3 12 -1 19 4
6 6 16 10 20 9 16 -4 89 13 102 24 6 5 12 7 12 4 0 -3 15 -1 33 4 17 6 40 12
50 14 9 2 22 7 27 10 5 3 18 8 29 10 47 9 237 97 352 162 40 23 154 101 184
125 11 9 38 32 60 50 63 51 71 58 144 133 56 56 132 145 189 220 51 67 191
313 197 345 1 3 9 23 19 45 10 22 24 60 32 85 8 25 18 52 21 60 13 34 60 226
67 275 3 22 9 65 13 95 9 59 11 5476 3 5572 -3 32 -7 58 -10 58 -3 0 -7 12 -8
28 -1 15 -7 48 -13 73 -6 26 -12 53 -13 60 -6 31 -28 106 -41 142 -8 20 -13
37 -10 37 2 0 -5 21 -17 48 -11 26 -29 67 -40 92 -65 149 -151 291 -256 425
-81 102 -298 315 -321 315 -5 0 -11 7 -15 15 -3 8 -12 15 -21 15 -8 0 -15 3
-15 8 0 4 -21 20 -48 37 -26 16 -49 32 -52 35 -3 4 -12 10 -20 13 -8 4 -37 21
-65 37 -91 55 -343 165 -353 155 -3 -3 -11 0 -19 6 -7 6 -13 9 -13 5 0 -4 -13
0 -30 9 -16 9 -30 14 -30 11 0 -2 -19 2 -42 9 -24 6 -49 10 -55 8 -7 -3 -13
-1 -13 4 0 5 -10 10 -22 10 -29 2 -85 11 -123 20 -31 7 -5518 16 -5526 9z
m216 -1276 c3 6 15 6 30 0 15 -6 27 -6 30 0 3 6 15 6 30 0 15 -6 27 -6 30 0 3
6 15 6 30 0 15 -6 27 -6 30 0 3 6 15 6 30 0 15 -6 27 -6 30 0 3 6 15 6 30 0
15 -6 27 -6 30 0 3 6 15 6 30 0 15 -6 27 -6 30 0 3 6 15 6 30 0 15 -6 27 -6
30 0 3 6 15 6 30 0 15 -6 27 -6 30 0 3 6 15 6 30 0 15 -6 27 -6 30 0 3 6 15 6
30 0 15 -6 27 -6 30 0 3 6 15 6 30 0 15 -6 27 -6 30 0 3 6 15 6 30 0 15 -6 27
-6 30 0 3 6 15 6 30 0 15 -6 27 -6 30 0 3 6 15 6 30 0 15 -6 27 -6 30 0 3 6
15 6 30 0 15 -6 27 -6 30 0 3 6 15 6 30 0 15 -6 27 -6 30 0 3 6 15 6 30 0 15
-6 27 -6 30 0 3 6 15 6 30 0 15 -6 27 -6 30 0 3 6 15 6 30 0 15 -6 27 -6 30 1
4 5 11 6 17 3 6 -4 32 -7 58 -7 26 0 52 3 58 7 6 3 13 2 17 -3 3 -7 15 -7 30
-1 14 5 27 5 30 0 3 -5 18 -5 35 0 16 5 32 5 35 0 3 -5 19 -5 35 0 17 5 32 5
35 0 3 -5 16 -5 30 0 15 6 27 6 30 0 3 -6 15 -6 30 0 15 6 27 6 30 0 3 -6 15
-6 30 0 14 5 27 5 30 0 3 -5 18 -5 35 0 16 5 32 5 35 0 3 -5 19 -5 35 0 17 5
32 5 35 0 3 -5 16 -5 30 0 15 6 27 6 30 0 3 -6 15 -6 30 0 15 6 27 6 30 0 3
-6 15 -6 30 0 14 5 27 5 30 0 3 -5 18 -5 35 0 16 5 32 5 35 0 3 -5 19 -5 35 0
17 5 32 5 35 0 3 -5 16 -5 30 0 15 6 27 6 30 0 3 -6 15 -6 30 0 15 6 27 6 30
0 3 -6 15 -6 30 0 14 5 27 5 30 0 3 -5 18 -5 35 0 16 5 32 5 35 0 3 -5 19 -5
35 0 17 5 32 5 35 0 3 -5 13 -6 21 -3 25 9 57 10 81 1 13 -4 25 -3 28 2 4 7
13 7 24 0 10 -5 21 -7 24 -3 9 8 1253 7 1266 -1 6 -4 11 -4 11 1 0 9 67 9 76
0 3 -3 17 -2 30 3 14 6 26 6 29 0 3 -6 15 -6 30 0 15 6 27 6 30 0 3 -6 15 -6
30 0 15 6 27 6 30 0 3 -6 15 -6 30 0 15 6 27 6 30 0 3 -6 15 -6 30 0 15 6 27
6 30 0 3 -6 15 -6 30 0 15 6 27 6 30 0 3 -6 15 -6 30 0 15 6 27 6 30 0 3 -6
15 -6 30 0 15 6 27 6 30 0 3 -6 15 -6 30 0 15 6 27 6 30 0 3 -6 15 -6 30 0 15
6 27 6 30 0 3 -6 15 -6 30 0 15 6 27 6 30 0 3 -6 15 -6 30 0 15 6 27 6 30 0 3
-6 15 -6 30 0 15 6 27 6 30 0 3 -6 15 -6 30 0 15 6 27 6 30 0 3 -6 15 -6 30 0
15 6 27 6 30 0 3 -6 15 -6 30 0 15 6 27 6 30 0 3 -6 15 -6 29 0 13 5 26 7 29
4 2 -3 45 -6 93 -8 108 -4 153 -16 263 -68 188 -91 327 -291 347 -503 2 -22 5
-55 7 -72 2 -18 0 -33 -5 -33 -4 0 -4 -10 1 -23 5 -13 5 -30 0 -39 -6 -10 -6
-19 0 -22 6 -4 6 -18 1 -35 -4 -15 -4 -34 0 -42 5 -7 5 -20 0 -29 -5 -9 -5
-22 0 -30 5 -8 5 -21 1 -29 -5 -8 -5 -27 -1 -43 5 -16 5 -28 0 -28 -6 0 -6 -9
-1 -23 5 -13 5 -30 0 -39 -6 -10 -6 -19 0 -22 6 -4 6 -18 1 -35 -4 -15 -4 -34
0 -42 5 -7 5 -20 0 -28 -4 -9 -4 -23 0 -31 5 -9 5 -22 0 -29 -4 -8 -4 -27 0
-42 5 -17 5 -29 0 -29 -6 0 -6 -9 -1 -23 5 -13 5 -30 0 -39 -6 -10 -6 -19 0
-22 6 -4 6 -18 1 -35 -4 -15 -4 -34 0 -42 5 -7 5 -20 0 -28 -4 -9 -4 -23 0
-31 5 -9 5 -22 0 -29 -4 -8 -4 -27 0 -42 5 -17 5 -29 0 -29 -6 0 -6 -9 -1 -23
5 -13 5 -30 0 -39 -6 -10 -6 -19 0 -22 6 -4 6 -18 1 -35 -4 -15 -4 -34 0 -42
5 -7 5 -20 0 -29 -5 -9 -5 -22 0 -30 5 -8 6 -18 3 -23 -7 -11 -9 -97 -3 -97 6
0 3 -89 -4 -106 -2 -6 0 -17 4 -24 5 -8 5 -21 0 -30 -5 -9 -5 -22 0 -30 5 -8
5 -21 0 -30 -5 -9 -5 -22 0 -30 5 -8 5 -21 0 -30 -5 -9 -5 -22 0 -30 5 -8 5
-21 0 -30 -5 -9 -5 -22 0 -30 5 -8 5 -21 0 -30 -5 -9 -5 -22 0 -30 5 -8 5 -21
0 -30 -5 -9 -5 -22 0 -30 5 -8 5 -21 0 -30 -5 -9 -5 -22 0 -30 5 -8 6 -18 3
-23 -3 -5 -7 -34 -9 -65 -4 -76 -22 -150 -45 -192 -4 -8 -20 -39 -35 -69 -15
-30 -60 -87 -103 -130 -94 -95 -181 -143 -321 -178 -8 -2 -55 -6 -104 -8 -48
-3 -92 -8 -97 -11 -5 -3 -9 -1 -9 4 0 5 -17 6 -40 2 -22 -4 -40 -4 -40 0 0 4
-18 4 -40 0 -22 -4 -40 -4 -40 0 0 4 -18 4 -40 0 -22 -4 -40 -4 -40 0 0 4 -18
4 -40 0 -22 -4 -40 -4 -40 0 0 4 -18 4 -40 0 -22 -4 -40 -4 -40 0 0 4 -18 4
-40 0 -22 -4 -40 -4 -40 1 0 5 -6 6 -13 3 -18 -6 -157 -10 -157 -4 0 3 -27 3
-60 0 -33 -3 -65 -3 -71 1 -6 3 -26 3 -45 -1 -19 -4 -36 -4 -39 0 -3 4 -20 5
-37 1 -18 -4 -46 -4 -63 -1 -16 4 -39 3 -50 0 -11 -4 -29 -4 -40 0 -11 4 -32
4 -46 0 -15 -4 -31 -5 -38 -1 -6 4 -34 5 -61 1 -27 -4 -55 -3 -61 1 -6 3 -26
3 -45 -1 -19 -4 -36 -4 -39 0 -3 4 -20 5 -37 1 -18 -4 -46 -4 -63 -1 -16 4
-39 3 -50 0 -11 -4 -29 -4 -40 0 -11 4 -32 4 -46 0 -15 -4 -32 -4 -38 0 -7 4
-27 4 -44 0 -18 -3 -47 -3 -65 1 -17 4 -34 3 -37 -1 -3 -4 -20 -4 -39 0 -19 4
-53 4 -75 0 -23 -4 -41 -4 -41 0 0 4 -18 4 -40 0 -22 -4 -40 -4 -40 0 0 4 -18
4 -40 0 -22 -4 -40 -4 -40 0 0 4 -18 4 -40 0 -22 -4 -40 -4 -40 0 0 4 -18 4
-40 0 -22 -4 -40 -4 -40 0 0 4 -18 4 -40 0 -22 -4 -40 -4 -40 0 0 4 -18 4 -40
0 -23 -4 -40 -3 -40 2 0 5 -4 6 -10 3 -8 -5 -44 -6 -165 -5 -11 1 -44 0 -73 0
-29 0 -57 2 -62 5 -6 3 -10 2 -10 -3 0 -5 -17 -6 -40 -2 -22 4 -42 5 -44 2 -7
-7 -106 -8 -106 -1 0 4 -18 3 -40 -1 -22 -4 -40 -5 -40 -1 0 5 -89 6 -97 1 -4
-2 -92 -2 -100 0 -5 2 -12 2 -16 1 -9 -2 -134 -2 -235 0 -35 1 -66 -1 -69 -4
-3 -3 -15 -2 -27 2 -11 4 -32 5 -46 1 -14 -3 -42 -3 -63 1 -20 3 -40 3 -42 -1
-3 -4 -20 -5 -37 -1 -18 4 -46 4 -63 1 -16 -4 -39 -3 -50 0 -11 3 -33 4 -50 0
-16 -3 -49 -3 -72 1 -24 3 -43 3 -43 -1 0 -4 -18 -4 -40 0 -22 4 -42 5 -44 2
-7 -7 -106 -8 -106 -1 0 4 -18 3 -40 -1 -22 -4 -40 -5 -40 -1 0 5 -89 6 -97 1
-4 -2 -92 -2 -100 0 -5 2 -12 2 -16 1 -9 -2 -134 -2 -235 0 -35 1 -66 -1 -69
-4 -3 -3 -15 -2 -27 2 -11 4 -32 5 -46 1 -14 -3 -42 -3 -63 1 -20 3 -40 2 -43
-2 -3 -5 -9 -7 -14 -4 -4 3 -45 7 -91 10 -88 4 -90 5 -154 23 -22 6 -43 10
-46 9 -4 -1 -16 7 -28 17 -12 11 -21 16 -21 13 0 -18 -113 66 -177 130 -51 51
-83 95 -109 149 -21 42 -39 81 -41 88 -1 6 -9 36 -16 66 -7 30 -13 88 -13 127
1 40 -2 73 -6 73 -4 0 -3 14 2 30 5 17 5 30 0 30 -5 0 -5 13 0 30 5 17 5 30 0
30 -5 0 -5 13 0 30 5 17 5 30 0 30 -5 0 -5 13 0 30 5 17 5 30 0 30 -5 0 -5 13
0 30 5 17 5 30 0 30 -5 0 -5 13 0 30 5 17 5 30 0 30 -5 0 -5 13 0 30 5 17 5
30 0 30 -5 0 -5 13 0 30 5 17 5 30 0 30 -5 0 -5 13 0 30 5 17 5 30 0 30 -5 0
-5 13 0 30 5 17 5 30 0 30 -5 0 -5 13 0 29 4 15 4 34 0 42 -5 7 -4 21 1 30 6
11 5 20 -1 24 -5 3 -6 15 0 29 4 12 4 29 0 36 -5 8 -4 22 1 31 6 11 5 20 -1
24 -5 3 -6 15 -1 28 5 12 5 34 0 49 -4 16 -4 28 1 28 5 0 5 13 0 30 -5 17 -5
30 0 30 5 0 5 12 1 28 -5 15 -5 37 0 49 5 13 4 25 -1 28 -6 4 -7 13 -1 24 5 9
6 23 2 30 -5 7 -5 30 -1 51 4 21 4 44 -1 51 -4 7 -3 21 2 30 6 11 5 20 -1 24
-5 3 -6 15 -1 28 5 12 5 34 0 49 -4 16 -4 28 1 28 5 0 5 13 0 30 -5 17 -5 30
0 30 5 0 5 12 1 28 -5 15 -5 37 0 49 5 13 4 25 -1 28 -6 4 -7 13 -1 24 5 9 6
23 1 31 -4 7 -4 24 0 36 6 14 5 26 0 29 -6 4 -7 13 -1 24 5 9 6 23 1 30 -4 8
-4 27 0 42 5 18 5 29 -1 29 -6 0 -8 4 -4 9 3 6 8 36 10 68 5 62 5 65 24 133
38 134 175 306 292 364 30 15 61 31 69 35 45 25 135 44 207 45 24 1 43 4 43 8
0 4 11 3 25 -2 15 -6 27 -6 30 0z m2737 -4509 c315 -80 556 -301 674 -616 23
-64 44 -157 48 -220 2 -33 5 -64 6 -70 1 -5 1 -12 0 -15 -6 -16 -4 -60 3 -60
4 0 5 -6 0 -12 -4 -7 -9 -30 -10 -52 -2 -21 -8 -57 -14 -80 -5 -22 -12 -52
-15 -66 -7 -34 -54 -153 -65 -164 -5 -6 -9 -18 -9 -27 0 -10 -4 -19 -8 -21 -4
-1 -19 -21 -32 -42 -33 -54 -160 -206 -160 -192 0 2 -14 -9 -32 -26 -59 -55
-221 -154 -264 -161 -11 -2 -29 -9 -41 -15 -13 -7 -23 -10 -23 -8 0 3 -18 -1
-40 -9 -47 -17 -108 -27 -170 -29 -25 -1 -50 -5 -55 -8 -6 -3 -19 -4 -30 -1
-11 2 -47 5 -80 8 -275 19 -551 182 -710 420 -30 44 -63 103 -75 130 -22 49
-66 173 -68 188 0 4 -4 28 -8 53 -4 26 -8 66 -9 90 -1 24 -4 47 -7 50 -4 3 -2
19 2 35 5 17 5 31 -1 35 -5 3 -6 11 -2 17 4 7 8 23 9 37 5 51 13 96 22 128 6
18 10 33 10 35 -4 8 30 95 64 163 42 85 129 208 182 254 17 15 44 40 60 55 16
14 47 38 70 53 22 15 43 30 46 33 13 16 191 93 245 105 161 38 349 40 487 5z"/>
</g>
</svg>
